<svg id="Layer_2" data-name="Layer 2" xmlns="http://www.w3.org/2000/svg" xmlns:xlink="http://www.w3.org/1999/xlink" viewBox="0 0 2160 2160">
  <defs>
    <pattern id="CreteDoodle5b5" data-name="CreteDoodle5b5" width="439.495" height="429.258" patternUnits="userSpaceOnUse" viewBox="0 0 439.495 429.258">
      <rect width="439.495" height="429.258" fill="none"/>
      <g>
        <circle cx="40.993" cy="188.549" r="24.205" fill="none" stroke="#231f20" stroke-miterlimit="10" stroke-width="3"/>
        <path d="M82.446,250.688l-49.521,12.12a15.618,15.618,0,0,1-18.616-19.881,45.531,45.531,0,0,1,75.467-18.471A15.619,15.619,0,0,1,82.446,250.688Z" fill="none" stroke="#231f20" stroke-miterlimit="10" stroke-width="3"/>
      </g>
      <g>
        <path d="M431.755,195.067l-12.372,39.262c-1.1,3.48-7.331,6.553-13.236,4.692l-51.3-16.165a10.978,10.978,0,0,1-7.471-13.6L359.75,169.99a4.767,4.767,0,0,1,6.046-2.977l63.4,19.978C431.757,187.8,433.213,190.442,431.755,195.067Z" fill="none" stroke="#231f20" stroke-miterlimit="10" stroke-width="3"/>
        <path d="M428.583,165.347l-6.06,19.23-51.249-16.15,5.584-17.72c3.988-12.656,19.085-19.177,33.719-14.565h0C424.243,140.449,432.309,153.524,428.583,165.347Z" fill="none" stroke="#231f20" stroke-miterlimit="10" stroke-width="3"/>
        <path d="M416.207,167.594l-4.386,13.917-29.312-9.237,4.386-13.917c2.7-8.557,11.219-13.5,19.038-11.031l1,.315C414.749,150.1,418.9,159.037,416.207,167.594Z" fill="none" stroke="#231f20" stroke-miterlimit="10" stroke-width="3"/>
        <circle cx="388.31" cy="203.755" r="6.312" fill="none" stroke="#231f20" stroke-miterlimit="10" stroke-width="3"/>
      </g>
      <circle cx="97.621" cy="317.563" r="21.383" fill="none" stroke="#231f20" stroke-miterlimit="10" stroke-width="3"/>
      <ellipse cx="422.152" cy="338.988" rx="13.407" ry="14.424" transform="translate(-100.316 480.947) rotate(-53.965)" fill="none" stroke="#231f20" stroke-miterlimit="10" stroke-width="3"/>
      <circle cx="108.791" cy="122.839" r="21.383" fill="none" stroke="#231f20" stroke-miterlimit="10" stroke-width="3"/>
      <circle cx="337.804" cy="95.229" r="23.239" fill="none" stroke="#231f20" stroke-miterlimit="10" stroke-width="3"/>
      <circle cx="135.369" cy="210.695" r="15.699" fill="none" stroke="#231f20" stroke-miterlimit="10" stroke-width="3"/>
      <circle cx="294.771" cy="203.18" r="10.625" fill="none" stroke="#231f20" stroke-miterlimit="10" stroke-width="3"/>
      <circle cx="350.72" cy="410.373" r="10.625" fill="none" stroke="#231f20" stroke-miterlimit="10" stroke-width="3"/>
      <circle cx="186.968" cy="338.988" r="10.625" fill="none" stroke="#231f20" stroke-miterlimit="10" stroke-width="3"/>
      <circle cx="29.756" cy="317.563" r="10.625" fill="none" stroke="#231f20" stroke-miterlimit="10" stroke-width="3"/>
      <circle cx="294.771" cy="37.318" r="13.4" fill="none" stroke="#231f20" stroke-miterlimit="10" stroke-width="3"/>
      <circle cx="34.863" cy="23.918" r="6.7" fill="none" stroke="#231f20" stroke-miterlimit="10" stroke-width="3"/>
      <circle cx="417.029" cy="393.252" r="6.7" fill="none" stroke="#231f20" stroke-miterlimit="10" stroke-width="3"/>
      <g>
        <path d="M265.493,231.444l7.651,21.7c3.732,10.582-17.553,27.739-47.541,38.314s-57.322,10.565-61.054-.018l-7.651-21.7c1.421,4.03,6.255,6.524,13.35,7.489,11.562,1.578,29.124-.911,47.706-7.464s33.825-15.633,41.84-24.114C264.714,240.449,266.914,235.474,265.493,231.444Z" fill="none" stroke="#231f20" stroke-miterlimit="10" stroke-width="3"/>
        <path d="M265.493,231.444c1.421,4.03-.779,9.005-5.7,14.207-8.015,8.481-23.257,17.561-41.84,24.114s-36.144,9.042-47.706,7.464c-7.095-.965-11.929-3.459-13.35-7.489-3.732-10.582,17.553-27.739,47.536-38.312S261.761,220.862,265.493,231.444Z" fill="none" stroke="#231f20" stroke-miterlimit="10" stroke-width="3"/>
      </g>
      <g>
        <path d="M425.421,56.756,415.589,67.1c-4.8,5.044-20.274-1.883-34.568-15.474s-21.99-28.7-17.194-33.742L373.66,7.54c-1.826,1.92-1.842,5.294-.377,9.487,2.387,6.833,8.71,15.836,17.568,24.258S409.02,55.571,415.965,57.61C420.226,58.863,423.6,58.677,425.421,56.756Z" fill="none" stroke="#231f20" stroke-miterlimit="10" stroke-width="3"/>
        <path d="M425.421,56.756c-1.826,1.921-5.195,2.107-9.456.854-6.945-2.039-16.257-7.9-25.114-16.325S375.67,23.86,373.283,17.027c-1.465-4.193-1.449-7.567.377-9.487,4.8-5.045,20.274,1.882,34.566,15.471S430.218,51.712,425.421,56.756Z" fill="none" stroke="#231f20" stroke-miterlimit="10" stroke-width="3"/>
      </g>
      <path d="M249.13,344.935c-6.275,5.511-12.9,13.947-21.6,24.4A25.428,25.428,0,0,0,221.64,380a24.635,24.635,0,0,0,3.085,18.233,27.041,27.041,0,0,0,11.721,8.483c10.864,3.923,22.02-1.4,26.763-4.21a4.427,4.427,0,0,1,4.615.085,26.372,26.372,0,0,0,21.418,3.5,30.664,30.664,0,0,0,13.184-7.573c2.055-2.9,5.04-8.125,4.759-14.587-.321-7.366-3.5-12.808-8.686-19.074-3.861-4.671-12.545-14.679-19.636-20.573C270.006,336.915,257.784,337.334,249.13,344.935Z" fill="none" stroke="#231f20" stroke-miterlimit="10" stroke-width="3"/>
      <path d="M12.544,391.332c-.24,4.932.618,11.217,1.484,19.211a15.018,15.018,0,0,0,2.1,6.886,14.56,14.56,0,0,0,9.014,6.188,16,16,0,0,0,8.423-1.489c6.135-3,8.461-9.931,9.219-13.1a2.618,2.618,0,0,1,1.934-1.925,15.6,15.6,0,0,0,10.294-7.66,18.137,18.137,0,0,0,2.2-8.715,14.107,14.107,0,0,0-4.239-8.021c-3.261-2.893-6.882-3.778-11.675-4.155a106.517,106.517,0,0,0-16.814-.12A13.31,13.31,0,0,0,12.544,391.332Z" fill="none" stroke="#231f20" stroke-miterlimit="10" stroke-width="3"/>
      <path d="M192.867,107.939l29.1-20.09a13.657,13.657,0,0,1,11.429-1.917l29.51,8.229a13.657,13.657,0,0,1,7.571,5.4l21.876,31.684a13.658,13.658,0,0,1-3.48,19l-45.234,31.232a13.659,13.659,0,0,1-19-3.48l-35.249-51.054A13.659,13.659,0,0,1,192.867,107.939Z" fill="none" stroke="#231f20" stroke-miterlimit="10" stroke-width="3"/>
      <path d="M204.515,38.145A28.084,28.084,0,0,1,197.745,56l3.593,14.1c.2.782-.709,1.437-1.583,1.14l-14.506-4.921a64.167,64.167,0,0,1-18.795,6.93,76.4,76.4,0,0,1-15.386,1.54c-29.516,0-53.447-16.4-53.447-36.639S121.552,1.5,151.068,1.5,204.515,17.909,204.515,38.145Z" fill="none" stroke="#231f20" stroke-miterlimit="10" stroke-width="3"/>
      <path d="M4.826,73.976,61.938,55.533a4.8,4.8,0,0,1,5.893,6.447l-22.747,53.5a4.8,4.8,0,0,1-9.139-1.005L28.381,94.293a4.8,4.8,0,0,0-3.513-3.773L5.094,83.191A4.8,4.8,0,0,1,4.826,73.976Z" fill="none" stroke="#231f20" stroke-linecap="round" stroke-linejoin="round" stroke-width="3"/>
      <path d="M340.19,251.568l-37.914,54.294a2.959,2.959,0,0,0,2.426,4.652h31.816a2.958,2.958,0,0,1,2.876,3.65l-7.173,29.76a2.958,2.958,0,0,0,5.248,2.461l40.39-54.208a2.958,2.958,0,0,0-2.463-4.724l-34.987,1.077a2.958,2.958,0,0,1-2.953-3.7l8.022-30.821A2.958,2.958,0,0,0,340.19,251.568Z" fill="none" stroke="#231f20" stroke-linecap="round" stroke-linejoin="round" stroke-width="3"/>
      <path d="M124,422.174l-9.43-7.418a26.081,26.081,0,0,1-4.373-36.624l7.419-9.43a26.081,26.081,0,0,1,36.624-4.373l9.429,7.418a26.081,26.081,0,0,1,4.373,36.624l-7.418,9.43A26.081,26.081,0,0,1,124,422.174Z" fill="none" stroke="#231f20" stroke-linecap="round" stroke-linejoin="round" stroke-width="3"/>
    </pattern>
  </defs>
  <rect width="2160" height="2160" opacity="0.35" fill="url(#CreteDoodle5b5)"/>
</svg>
